<?xml version="1.0" encoding="UTF-8"?>
<!DOCTYPE svg PUBLIC "-//W3C//DTD SVG 1.1//EN" "http://www.w3.org/Graphics/SVG/1.1/DTD/svg11.dtd">
<svg xmlns="http://www.w3.org/2000/svg" version="1.1" width="1440px" height="640px" style="shape-rendering:geometricPrecision; text-rendering:geometricPrecision; image-rendering:optimizeQuality; fill-rule:evenodd; clip-rule:evenodd" xmlns:xlink="http://www.w3.org/1999/xlink">
<g><path style="opacity:0.073" fill="#fefefe" d="M 1124.5,307.5 C 1105.45,313.766 1086.12,319.433 1066.5,324.5C 998.828,324.312 931.162,323.646 863.5,322.5C 854.795,322.457 846.128,322.957 837.5,324C 558.134,384.106 278.801,444.273 -0.5,504.5C -0.5,498.833 -0.5,493.167 -0.5,487.5C 71.7662,460.577 144.1,433.743 216.5,407C 321.244,369.73 428.244,340.73 537.5,320C 482.168,318.756 426.835,318.089 371.5,318C 298.124,339.737 224.791,361.57 151.5,383.5C 197.954,361.108 244.621,338.942 291.5,317C 194.161,315.986 96.8272,314.819 -0.5,313.5C -0.5,309.5 -0.5,305.5 -0.5,301.5C 103.496,288.048 207.496,274.548 311.5,261C 352.743,256.311 394.076,252.645 435.5,250C 694.114,129.347 966.114,62.6806 1251.5,50C 1037.56,115.202 823.56,180.202 609.5,245C 783.627,247.058 955.293,267.891 1124.5,307.5 Z"/></g>
<g><path style="opacity:0.999" fill="#f6f4ee" d="M 1439.5,214.5 C 1439.5,356.167 1439.5,497.833 1439.5,639.5C 962.833,639.5 486.167,639.5 9.5,639.5C 361.788,534.345 714.121,429.345 1066.5,324.5C 1086.12,319.433 1105.45,313.766 1124.5,307.5C 1229.55,276.655 1334.55,245.655 1439.5,214.5 Z"/></g>
<g><path style="opacity:0.004" fill="#fefffe" d="M 151.5,383.5 C 151.103,384.525 150.437,384.692 149.5,384C 150.094,383.536 150.761,383.369 151.5,383.5 Z"/></g>
</svg>
