<?xml version="1.0" standalone="no"?>
<!DOCTYPE svg PUBLIC "-//W3C//DTD SVG 20010904//EN"
 "http://www.w3.org/TR/2001/REC-SVG-20010904/DTD/svg10.dtd">
<svg version="1.0" xmlns="http://www.w3.org/2000/svg"
 width="500.000000pt" height="500.000000pt" viewBox="0 0 500.000000 500.000000"
 preserveAspectRatio="xMidYMid meet">

<g transform="translate(0.000000,500.000000) scale(0.100000,-0.100000)"
fill="#000000" stroke="none">
<path d="M2020 3241 c-47 -25 -71 -84 -67 -172 l2 -66 -60 -50 c-168 -140
-235 -265 -235 -442 0 -218 97 -373 249 -397 36 -6 41 -9 35 -28 -21 -72 -73
-174 -129 -256 l-65 -95 61 -58 c34 -31 67 -57 74 -57 7 0 16 17 20 37 4 21
17 71 30 113 45 147 84 296 91 347 6 49 5 52 -23 66 -16 9 -46 34 -66 56 l-37
41 0 -40 c0 -23 -5 -40 -11 -40 -7 0 -33 21 -59 48 -53 53 -69 91 -77 196 -6
68 -6 68 16 56 17 -9 26 -9 37 1 23 19 16 56 -17 93 -25 29 -29 41 -24 65 9
41 49 93 142 184 102 100 204 168 313 209 80 30 92 32 225 32 119 1 151 -2
213 -22 60 -19 72 -26 68 -40 -4 -13 3 -21 26 -30 17 -6 32 -11 33 -9 1 1 12
19 24 39 52 87 164 144 204 104 23 -24 40 -93 32 -135 -10 -52 -30 -86 -74
-123 l-39 -32 34 -41 c45 -55 156 -250 189 -333 50 -122 75 -244 31 -146 -29
62 -92 151 -82 114 4 -14 16 -56 27 -95 13 -47 22 -115 26 -205 4 -115 2 -148
-16 -222 -21 -88 -62 -182 -99 -228 l-20 -25 14 55 c21 81 27 151 19 215 -8
68 -17 62 -34 -24 -26 -135 -100 -288 -188 -388 -30 -35 -52 -63 -49 -63 2 0
38 12 78 26 155 55 297 145 406 257 52 53 54 56 64 133 11 91 4 242 -18 359
-35 184 -134 419 -232 549 l-30 40 34 49 c19 27 39 68 45 90 23 84 -6 191 -66
247 -23 22 -36 25 -98 25 -78 0 -110 -15 -171 -78 -27 -29 -30 -30 -60 -17
-123 51 -310 65 -448 34 l-70 -16 -31 37 c-27 33 -94 74 -122 75 -6 0 -26 -8
-45 -19z m90 -106 c13 -14 22 -26 19 -27 -24 -15 -89 -48 -94 -48 -7 0 3 79
12 93 9 15 40 6 63 -18z"/>
<path d="M2410 2887 c-21 -10 -69 -78 -70 -98 0 -3 13 -4 28 -1 18 2 33 -2 41
-12 32 -38 111 -6 111 44 0 16 7 36 16 44 14 15 13 17 -11 26 -36 14 -85 12
-115 -3z m55 -32 c0 -11 -7 -21 -16 -23 -18 -3 -33 23 -23 39 10 17 39 5 39
-16z"/>
<path d="M2774 2709 c50 -109 53 -257 8 -345 -50 -96 -138 -163 -250 -190 -83
-20 -260 -17 -361 5 -82 18 -84 18 -60 0 57 -44 159 -88 238 -104 144 -30 276
0 390 88 95 73 149 226 129 368 -8 64 -63 183 -99 215 -17 16 -17 11 5 -37z"/>
<path d="M1969 2591 c-58 -58 -20 -123 50 -86 45 23 59 57 37 90 -22 33 -51
32 -87 -4z"/>
</g>
</svg>
